# xmcd
#
# Track frame offsets: 
#        150
#        24210
#        42755
#        67398
#        88309
#        110142
#        136676
#        169426
#        195058
#        218893
#        239125
#        267391
#        295342
#        320232
#        341059
#
# Disc length: 4775 seconds
#
# Revision: 0
# Processed by: cddbd v1.5.2PL0 Copyright (c) Steve Scherf et al.
# Submitted via: ExactAudioCopy v0.99pb4
#
DISCID=f212a50f
DTITLE=Various Artist - Blues 3(1000 original hits, volume 61)
DYEAR=2006
DGENRE=Blues
TTITLE0=Cris Rea - And you my love
TTITLE1=Tony Joe White - The gitar don`t lie
TTITLE2=Gary moore - still got the blues
TTITLE3=Robert cray band - never mattered much
TTITLE4=Lucky Peterson - who been talking
TTITLE5=Blues company - silent night
TTITLE6=Albert king - I`ll play the blues for you
TTITLE7=little blue - gold rain
TTITLE8=Smocking joe kubek
TTITLE9=C J Chenier - Richest man
TTITLE10=Jonhy winter - lives is hard
TTITLE11=Byther Smith - Play the blues in paris
TTITLE12=Rick Derringer - You`ve got to love her with feelings
TTITLE13=Dana Gilspie - where blues begins
TTITLE14=Colin James - something good
EXTD=
EXTT0=
EXTT1=DFHG
EXTT2=
EXTT3=
EXTT4=
EXTT5=
EXTT6=
EXTT7=
EXTT8=
EXTT9=
EXTT10=
EXTT11=
EXTT12=
EXTT13=
EXTT14=
PLAYORDER=
